<svg width="179" height="260" viewBox="0 0 179 260" fill="none" xmlns="http://www.w3.org/2000/svg">
<g filter="url(#filter0_f_2835_30620)">
<g filter="url(#filter1_f_2835_30620)">
<path d="M89.0678 212.764C82.7864 212.717 77.7887 217.653 77.9057 223.789L78.416 239.371C78.5271 245.225 73.7595 249.935 67.7664 249.889C61.7737 249.843 56.8253 245.061 56.7141 239.207L56.2037 223.625C56.0868 217.489 50.9 212.476 44.6182 212.428C38.3368 212.381 33.3391 217.317 33.456 223.453L33.9542 238.397C34.0722 244.603 29.0171 249.596 22.6634 249.548C16.3097 249.5 11.063 244.429 10.9451 238.223L10.9461 87.4087C10.9461 -14.769 167.963 -14.7614 167.963 87.415L167.969 240.048C168.08 245.902 163.312 250.611 157.319 250.566C151.327 250.521 146.378 245.738 146.267 239.884L145.756 224.302C145.64 218.166 140.453 213.153 134.171 213.105C127.89 213.058 122.892 217.994 123.009 224.13L123.507 239.073C123.625 245.28 118.57 250.273 112.216 250.225C105.862 250.177 100.616 245.106 100.498 238.899L99.9874 223.318C99.8774 217.534 94.9886 212.809 89.0678 212.764Z" stroke="#08FBFF" stroke-width="4.73034"/>
</g>
</g>
<path d="M89.5216 211.626C83.3689 211.58 78.4737 216.415 78.5882 222.425L79.0881 237.687C79.1969 243.422 74.527 248.035 68.6567 247.99C62.7868 247.945 57.9398 243.261 57.8309 237.527L57.3309 222.265C57.2165 216.254 52.136 211.344 45.9829 211.297C39.8302 211.251 34.9349 216.085 35.0494 222.096L35.5374 236.733C35.653 242.813 30.7014 247.703 24.4779 247.656C18.2545 247.609 13.1153 242.642 12.9998 236.563L13.0008 88.8391C13.0008 -11.2448 166.8 -11.2373 166.8 88.8453L166.806 238.351C166.915 244.085 162.245 248.698 156.375 248.653C150.505 248.609 145.658 243.924 145.549 238.19L145.049 222.927C144.934 216.917 139.854 212.007 133.701 211.96C127.548 211.914 122.653 216.748 122.767 222.759L123.255 237.396C123.371 243.476 118.419 248.366 112.196 248.319C105.972 248.272 100.833 243.305 100.717 237.226L100.217 221.963C100.11 216.298 95.3211 211.67 89.5216 211.626Z" fill="#1A1A1A" stroke="#08FBFF" stroke-width="4.07895"/>
<g filter="url(#filter2_i_2835_30620)">
<path d="M89.5216 211.626C83.3689 211.58 78.4737 216.415 78.5882 222.425L79.0881 237.687C79.1969 243.422 74.527 248.035 68.6567 247.99C62.7868 247.945 57.9398 243.261 57.8309 237.527L57.3309 222.265C57.2165 216.254 52.136 211.344 45.9829 211.297C39.8302 211.251 34.9349 216.085 35.0494 222.096L35.5374 236.733C35.653 242.813 30.7014 247.703 24.4779 247.656C18.2545 247.609 13.1153 242.642 12.9998 236.563L13.0008 88.8391C13.0008 -11.2448 166.8 -11.2373 166.8 88.8453L166.806 238.351C166.915 244.085 162.245 248.698 156.375 248.653C150.505 248.609 145.658 243.924 145.549 238.19L145.049 222.927C144.934 216.917 139.854 212.007 133.701 211.96C127.548 211.914 122.653 216.748 122.767 222.759L123.255 237.396C123.371 243.476 118.419 248.366 112.196 248.319C105.972 248.272 100.833 243.305 100.717 237.226L100.217 221.963C100.11 216.298 95.3211 211.67 89.5216 211.626Z" fill="#1A1A1A"/>
</g>
<path d="M89.5216 211.626C83.3689 211.58 78.4737 216.415 78.5882 222.425L79.0881 237.687C79.1969 243.422 74.527 248.035 68.6567 247.99C62.7868 247.945 57.9398 243.261 57.8309 237.527L57.3309 222.265C57.2165 216.254 52.136 211.344 45.9829 211.297C39.8302 211.251 34.9349 216.085 35.0494 222.096L35.5374 236.733C35.653 242.813 30.7014 247.703 24.4779 247.656C18.2545 247.609 13.1153 242.642 12.9998 236.563L13.0008 88.8391C13.0008 -11.2448 166.8 -11.2373 166.8 88.8453L166.806 238.351C166.915 244.085 162.245 248.698 156.375 248.653C150.505 248.609 145.658 243.924 145.549 238.19L145.049 222.927C144.934 216.917 139.854 212.007 133.701 211.96C127.548 211.914 122.653 216.748 122.767 222.759L123.255 237.396C123.371 243.476 118.419 248.366 112.196 248.319C105.972 248.272 100.833 243.305 100.717 237.226L100.217 221.963C100.11 216.298 95.3211 211.67 89.5216 211.626Z" stroke="#08FBFF" stroke-width="4.07895"/>
<rect x="42.5432" y="57.7952" width="36.1406" height="49.1141" rx="18.0703" fill="#F8F8F8"/>
<path d="M99.9976 75.8654C99.9976 65.8855 108.088 57.7952 118.068 57.7952C128.048 57.7952 136.138 65.8855 136.138 75.8654V88.839C136.138 98.8189 128.048 106.909 118.068 106.909C108.088 106.909 99.9976 98.8189 99.9976 88.839V75.8654Z" fill="#F8F8F8"/>
<rect x="52" y="89" width="18.5336" height="18.5336" rx="9.26681" fill="#1A1A1A"/>
<rect x="110" y="89" width="18.5336" height="18.5336" rx="9.26681" fill="#1A1A1A"/>
<defs>
<filter id="filter0_f_2835_30620" x="0.579834" y="-0.0593262" width="178.655" height="264.816" filterUnits="userSpaceOnUse" color-interpolation-filters="sRGB">
<feFlood flood-opacity="0" result="BackgroundImageFix"/>
<feBlend mode="normal" in="SourceGraphic" in2="BackgroundImageFix" result="shape"/>
<feGaussianBlur stdDeviation="4" result="effect1_foregroundBlur_2835_30620"/>
</filter>
<filter id="filter1_f_2835_30620" x="4.50089" y="4.33487" width="169.914" height="252.675" filterUnits="userSpaceOnUse" color-interpolation-filters="sRGB">
<feFlood flood-opacity="0" result="BackgroundImageFix"/>
<feBlend mode="normal" in="SourceGraphic" in2="BackgroundImageFix" result="shape"/>
<feGaussianBlur stdDeviation="2.03947" result="effect1_foregroundBlur_2835_30620"/>
</filter>
<filter id="filter2_i_2835_30620" x="10.9602" y="11.7402" width="157.887" height="242.953" filterUnits="userSpaceOnUse" color-interpolation-filters="sRGB">
<feFlood flood-opacity="0" result="BackgroundImageFix"/>
<feBlend mode="normal" in="SourceGraphic" in2="BackgroundImageFix" result="shape"/>
<feColorMatrix in="SourceAlpha" type="matrix" values="0 0 0 0 0 0 0 0 0 0 0 0 0 0 0 0 0 0 127 0" result="hardAlpha"/>
<feOffset dy="4"/>
<feGaussianBlur stdDeviation="6"/>
<feComposite in2="hardAlpha" operator="arithmetic" k2="-1" k3="1"/>
<feColorMatrix type="matrix" values="0 0 0 0 0.0313726 0 0 0 0 0.984314 0 0 0 0 1 0 0 0 1 0"/>
<feBlend mode="normal" in2="shape" result="effect1_innerShadow_2835_30620"/>
</filter>
</defs>
</svg>
